<?xml version="1.0" encoding="utf-8"?>
<!-- Generator: Adobe Illustrator 18.0.0, SVG Export Plug-In . SVG Version: 6.00 Build 0)  -->
<!DOCTYPE svg PUBLIC "-//W3C//DTD SVG 1.1//EN" "http://www.w3.org/Graphics/SVG/1.1/DTD/svg11.dtd">
<svg version="1.1" id="Layer_1" xmlns="http://www.w3.org/2000/svg" xmlns:xlink="http://www.w3.org/1999/xlink" x="0px" y="0px"
	 viewBox="12 682.9 583.3 159" enable-background="new 12 682.9 583.3 159" xml:space="preserve">
<g>
	
		<linearGradient id="SVGID_1_" gradientUnits="userSpaceOnUse" x1="67.3506" y1="64.109" x2="37.6826" y2="36.5987" gradientTransform="matrix(2.3557 0 0 -2.3557 -0.2218 842.1861)">
		<stop  offset="0" style="stop-color:#ADADAD"/>
		<stop  offset="0.4909" style="stop-color:#A5A5A5"/>
		<stop  offset="1" style="stop-color:#6E6C6F"/>
	</linearGradient>
	<path fill="url(#SVGID_1_)" d="M85.7,828c-38.4,0-69.5-31.1-69.5-69.5s31.1-69.2,69.5-69.2s69.5,31.1,69.5,69.5S123.9,828,85.7,828
		z M85.7,693.1c-36.3,0-65.7,29.4-65.7,65.5c0,36.1,29.4,65.5,65.5,65.5s65.5-29.4,65.5-65.5C151,722.5,121.8,693.1,85.7,693.1z"/>
</g>
<g>
	
		<image overflow="visible" opacity="0.75" enable-background="new    " width="150" height="131" xlink:href="6A3D429E.png"  transform="matrix(0.744 0 0 0.7368 18.799 691.9407)">
	</image>
	<g>
		
			<linearGradient id="SVGID_2_" gradientUnits="userSpaceOnUse" x1="32.1845" y1="25.1649" x2="30.2426" y2="88.1691" gradientTransform="matrix(2.3557 0 0 -2.3557 -0.2218 842.1861)">
			<stop  offset="0" style="stop-color:#C1D504"/>
			<stop  offset="0.4909" style="stop-color:#768F0D"/>
			<stop  offset="1" style="stop-color:#415D12"/>
		</linearGradient>
		<path fill="url(#SVGID_2_)" d="M86.7,701.5c-11.8,0-23.8,3.8-35.6,11.6c0,0-8.5,5.5-15.1,16.5c-5.7,9.7-10.8,25.5-5.2,47.4
			c3.1-11,13.6-41.3,39.3-51.8L71,725l0.5,0.5c0.2,0.2,26.4,20.7,31.1,54c5.9-8.3,24.5-38.2,15.3-67.2
			C116.2,710.5,104.4,701.5,86.7,701.5z"/>
	</g>
</g>
<g>
	
		<linearGradient id="SVGID_3_" gradientUnits="userSpaceOnUse" x1="71.9874" y1="64.4619" x2="10.8175" y2="26.9184" gradientTransform="matrix(2.3557 0 0 -2.3557 -0.2218 842.1861)">
		<stop  offset="0" style="stop-color:#C1D504"/>
		<stop  offset="0.4909" style="stop-color:#768F0D"/>
		<stop  offset="1" style="stop-color:#415D12"/>
	</linearGradient>
	<path fill="url(#SVGID_3_)" d="M31.3,785.9l-1.4-4.2c-7.7-25.2-1.9-42.9,4.2-53.4c6.8-11.6,15.3-16.9,15.8-17.2
		c12.3-7.7,24.5-11.8,36.7-11.8c20,0,32.5,10.6,33,11l0.2,0.2v0.2c11.3,35.4-16.9,71.6-17.4,71.8l-1.4,2.4l-0.2-2.8
		c-3.3-31.4-26.4-51.8-30.1-54.9c-29.9,12.7-38.2,53.4-38.4,54L31.3,785.9z M71,724.9l0.5,0.5c0.2,0.2,26.4,20.7,31.1,54
		c5.9-8.3,24.5-38.2,15.3-67.2c-1.9-1.4-13.6-10.3-31.4-10.3c-11.8,0-23.8,3.8-35.6,11.6c0,0-8.5,5.5-15.1,16.5
		c-5.7,9.7-10.8,25.5-5.2,47.4c3.1-11,13.6-41.3,39.3-51.8L71,724.9z"/>
</g>
<path fill="#FAFAFA" d="M36.3,737.7c0,0,11.6-20.5,29.2-25.2c0,0,10.6,7.5,16.5-4c0,0,12.7-3.8,33.4,5.2c0,0-20.9-13.4-43.3-6.8
	C49.7,713.4,40.7,728.9,36.3,737.7z"/>
<g>
	
		<linearGradient id="SVGID_4_" gradientUnits="userSpaceOnUse" x1="25.7632" y1="23.0493" x2="98.0444" y2="49.3726" gradientTransform="matrix(2.3557 0 0 -2.3557 -0.2218 842.1861)">
		<stop  offset="0" style="stop-color:#7D7D7D"/>
		<stop  offset="0.4909" style="stop-color:#302F2D"/>
		<stop  offset="1" style="stop-color:#000000"/>
	</linearGradient>
	<path fill="url(#SVGID_4_)" d="M87.7,818.1c-19.3,0-34.4-9.7-35.1-10.1l-0.5-0.5v-0.7c2.8-30.8,15.3-47.6,15.8-48.3l0.9-1.1
		l0.9,1.1c15.8,20.7,22.4,43.3,23.8,49.2c18.2-9,28.8-33.7,28.8-33.9c10.8-25.5,7.7-51.1,7.7-51.4l-0.5-3.3l2.4,2.4
		c3.3,3.3,8.5,12.7,8.5,13.2c0.2,0.2,4.7,8.7,5.2,21.3c0.5,11.6-2.6,29-19.6,45.7C115.2,812.8,102.2,818.1,87.7,818.1z M54.5,806.4
		c2.8,1.9,16.7,9.4,33.2,9.4c13.9,0,26.4-5.5,36.7-15.8c16.5-16.3,19.3-33,19.1-44.1c-0.5-12-4.7-20.2-5-20.5c0,0-3.1-5.9-5.9-9.9
		c0.5,8.3,0.5,28.8-8.3,49c-0.5,1.1-11.6,27.1-31.1,35.8l-1.1,0.5l-0.2-1.4c0-0.2-5.7-25.5-22.8-48.5C66,765.9,57,781.4,54.5,806.4z
		"/>
</g>
<g>
	
		<image overflow="visible" opacity="0.75" enable-background="new    " width="148" height="148" xlink:href="6A3D42A2.png"  transform="matrix(0.7317 0 0 0.7367 44.8594 716.1812)">
	</image>
	<g>
		
			<linearGradient id="SVGID_5_" gradientUnits="userSpaceOnUse" x1="55.5651" y1="40.3759" x2="27.7312" y2="12.7578" gradientTransform="matrix(2.3557 0 0 -2.3557 -0.2218 842.1861)">
			<stop  offset="0" style="stop-color:#7D7D7D"/>
			<stop  offset="0.4909" style="stop-color:#302F2D"/>
			<stop  offset="1" style="stop-color:#000000"/>
		</linearGradient>
		<path fill="url(#SVGID_5_)" d="M138.5,735.7c0,0-3.1-5.9-5.9-9.9c0.5,8.3,0.5,28.8-8.3,49c-0.5,1.1-11.6,27.1-31.1,35.8l-1.1,0.5
			l-0.2-1.4c0-0.2-5.7-25.5-22.8-48.5c-2.8,4.4-12,20-14.3,45c2.8,1.9,16.7,9.4,33.2,9.4c13.9,0,26.4-5.5,36.7-15.8
			c16.5-16.3,19.3-33,19.1-44.1C143,744.2,138.5,736,138.5,735.7z"/>
	</g>
</g>
<g enable-background="new    ">
	<path d="M187,717.7c-3,0-5.3,1.1-7,3.4c-1.7,2.3-2.5,5.4-2.5,9.5c0,8.4,3.2,12.6,9.5,12.6c2.6,0,5.9-0.7,9.6-2v6.7
		c-3.1,1.3-6.6,1.9-10.4,1.9c-5.5,0-9.7-1.7-12.6-5c-2.9-3.3-4.4-8.1-4.4-14.3c0-3.9,0.7-7.4,2.1-10.3c1.4-3,3.5-5.2,6.2-6.8
		c2.7-1.6,5.8-2.4,9.4-2.4c3.7,0,7.3,0.9,11,2.7l-2.6,6.5c-1.4-0.7-2.8-1.3-4.3-1.8C189.8,718,188.4,717.7,187,717.7z"/>
	<path d="M227.8,749.3l-2.7-9h-13.8l-2.7,9h-8.6l13.3-37.9h9.8l13.4,37.9H227.8z M223.1,733.6c-2.5-8.1-4-12.7-4.3-13.8
		c-0.3-1.1-0.5-1.9-0.7-2.5c-0.6,2.2-2.2,7.6-4.9,16.3H223.1z"/>
	<path d="M249.1,734.9v14.5h-8v-37.7h11c5.1,0,8.9,0.9,11.4,2.8c2.5,1.9,3.7,4.7,3.7,8.5c0,2.2-0.6,4.2-1.8,5.9
		c-1.2,1.7-3,3.1-5.2,4.1c5.7,8.5,9.4,14,11.1,16.4h-8.9l-9-14.5H249.1z M249.1,728.4h2.6c2.5,0,4.4-0.4,5.6-1.3
		c1.2-0.8,1.8-2.2,1.8-4c0-1.8-0.6-3.1-1.8-3.8c-1.2-0.8-3.1-1.1-5.7-1.1h-2.4V728.4z"/>
	<path d="M299.1,749.3l-2.7-9h-13.8l-2.7,9h-8.6l13.3-37.9h9.8l13.4,37.9H299.1z M294.5,733.6c-2.5-8.1-4-12.7-4.3-13.8
		c-0.3-1.1-0.5-1.9-0.7-2.5c-0.6,2.2-2.2,7.6-4.9,16.3H294.5z"/>
	<path d="M334.8,738.9c0,3.4-1.2,6.1-3.7,8.1c-2.5,2-5.9,2.9-10.2,2.9c-4,0-7.6-0.8-10.7-2.3v-7.4c2.5,1.1,4.7,1.9,6.5,2.4
		c1.8,0.5,3.4,0.7,4.8,0.7c1.8,0,3.1-0.3,4-1s1.4-1.7,1.4-3c0-0.7-0.2-1.4-0.6-2s-1-1.1-1.8-1.7s-2.4-1.4-4.9-2.6
		c-2.3-1.1-4-2.1-5.2-3.1c-1.2-1-2.1-2.2-2.8-3.5c-0.7-1.3-1-2.9-1-4.6c0-3.3,1.1-6,3.4-7.9s5.4-2.9,9.4-2.9c2,0,3.8,0.2,5.6,0.7
		s3.6,1.1,5.6,2l-2.6,6.2c-2-0.8-3.7-1.4-5-1.7c-1.3-0.3-2.6-0.5-3.9-0.5c-1.5,0-2.7,0.4-3.5,1.1c-0.8,0.7-1.2,1.6-1.2,2.8
		c0,0.7,0.2,1.3,0.5,1.8c0.3,0.5,0.8,1,1.6,1.5c0.7,0.5,2.4,1.4,5.1,2.6c3.5,1.7,5.9,3.4,7.3,5.1
		C334.1,734.3,334.8,736.4,334.8,738.9z"/>
	<path d="M364.7,749.3l-2.7-9h-13.8l-2.7,9h-8.6l13.3-37.9h9.8l13.4,37.9H364.7z M360.1,733.6c-2.5-8.1-4-12.7-4.3-13.8
		c-0.3-1.1-0.5-1.9-0.7-2.5c-0.6,2.2-2.2,7.6-4.9,16.3H360.1z"/>
	<path d="M407.8,749.3l-9.1-29.6h-0.2c0.3,6,0.5,10,0.5,12.1v17.5h-7.1v-37.7h10.9l8.9,28.9h0.2l9.5-28.9h10.9v37.7h-7.5v-17.9
		c0-0.8,0-1.8,0-2.9c0-1.1,0.1-4,0.3-8.8h-0.2l-9.7,29.6H407.8z"/>
	<path d="M463.4,749.3h-21.7v-37.7h21.7v6.6h-13.7v8.3h12.8v6.6h-12.8v9.7h13.7V749.3z M447.9,708.6v-0.7c3-3.4,5-6,6.1-7.8h8.8v0.5
		c-0.9,0.9-2.4,2.2-4.6,4s-3.8,3.1-5.1,3.9H447.9z"/>
	<path d="M501.8,749.3h-9.1l-8.8-14.3l-8.8,14.3h-8.6l12.5-19.5l-11.7-18.3h8.8l8.1,13.6l8-13.6h8.6L489,730.3L501.8,749.3z"/>
	<path d="M506.5,749.3v-37.7h8v37.7H506.5z"/>
	<path d="M540,717.7c-3,0-5.3,1.1-7,3.4c-1.7,2.3-2.5,5.4-2.5,9.5c0,8.4,3.2,12.6,9.5,12.6c2.6,0,5.9-0.7,9.6-2v6.7
		c-3.1,1.3-6.6,1.9-10.4,1.9c-5.5,0-9.7-1.7-12.6-5c-2.9-3.3-4.4-8.1-4.4-14.3c0-3.9,0.7-7.4,2.1-10.3c1.4-3,3.5-5.2,6.2-6.8
		c2.7-1.6,5.8-2.4,9.4-2.4c3.7,0,7.3,0.9,11,2.7l-2.6,6.5c-1.4-0.7-2.8-1.3-4.3-1.8C542.8,718,541.4,717.7,540,717.7z"/>
	<path d="M591.9,730.4c0,6.2-1.5,11-4.6,14.4c-3.1,3.4-7.5,5-13.3,5s-10.2-1.7-13.3-5c-3.1-3.4-4.6-8.2-4.6-14.5s1.6-11.1,4.7-14.4
		c3.1-3.3,7.6-5,13.4-5c5.8,0,10.2,1.7,13.3,5S591.9,724.2,591.9,730.4z M564.4,730.4c0,4.2,0.8,7.4,2.4,9.5c1.6,2.1,4,3.2,7.2,3.2
		c6.4,0,9.6-4.2,9.6-12.7c0-8.5-3.2-12.8-9.5-12.8c-3.2,0-5.6,1.1-7.2,3.2C565.2,723,564.4,726.2,564.4,730.4z"/>
</g>
<g enable-background="new    ">
	<path d="M173.2,815v-32.8h2.3V815H173.2z"/>
	<path d="M220.5,815h-2.3l-19.4-29.1h-0.2c0.2,3.5,0.3,6.1,0.3,7.8V815h-2.2v-32.8h2.3l19.4,29h0.1c-0.1-2.7-0.2-5.2-0.2-7.7v-21.4
		h2.2V815z"/>
	<path d="M250.3,815H248v-30.6h-10.6v-2.2h23.6v2.2h-10.6V815z"/>
	<path d="M295.6,815h-17.9v-32.8h17.9v2.1H280v12.4h14.7v2.1H280v14h15.6V815z"/>
	<path d="M327.8,798.5h12.1v14.9c-3.2,1.3-6.7,2-10.7,2c-5.2,0-9.1-1.5-11.9-4.4s-4.1-7.1-4.1-12.4c0-3.3,0.7-6.3,2.1-8.9
		c1.4-2.6,3.3-4.6,5.9-6c2.5-1.4,5.5-2.1,8.8-2.1c3.6,0,6.8,0.7,9.6,2l-0.9,2.1c-2.8-1.3-5.8-2-8.8-2c-4.3,0-7.7,1.3-10.3,4
		c-2.5,2.7-3.8,6.3-3.8,10.8c0,4.9,1.2,8.6,3.6,11.1c2.4,2.5,5.9,3.7,10.6,3.7c3,0,5.6-0.4,7.7-1.3v-11.5h-9.7V798.5z"/>
	<path d="M362.3,800.8V815H360v-32.8h7.8c4.1,0,7.1,0.8,9,2.3s2.9,3.8,2.9,6.8c0,2.2-0.6,4-1.7,5.6c-1.2,1.5-2.9,2.6-5.3,3.2
		l8.9,14.9h-2.7l-8.4-14.3H362.3z M362.3,798.8h6.3c2.8,0,4.9-0.6,6.4-1.8c1.5-1.2,2.3-3.1,2.3-5.5c0-2.5-0.7-4.3-2.2-5.4
		c-1.5-1.1-3.9-1.7-7.3-1.7h-5.4V798.8z"/>
	<path d="M415,803.5h-13.3l-4.6,11.6h-2.5l13.2-32.9h1.5l12.9,32.9h-2.6L415,803.5z M402.5,801.4h11.7l-4.5-11.8
		c-0.4-0.9-0.8-2.2-1.3-3.9c-0.4,1.4-0.8,2.7-1.3,3.9L402.5,801.4z"/>
	<path d="M463.5,798.3c0,5.5-1.4,9.7-4.3,12.5c-2.9,2.8-7.1,4.2-12.7,4.2h-7.8v-32.8h8.8c5.2,0,9.2,1.4,11.9,4.1
		C462.2,789.1,463.5,793.1,463.5,798.3z M461,798.4c0-4.7-1.2-8.2-3.6-10.6c-2.4-2.4-5.9-3.6-10.5-3.6h-6V813h5.4
		C456.2,813,461,808.1,461,798.4z"/>
	<path d="M510.5,798.6c0,5.2-1.3,9.3-3.9,12.3c-2.6,3-6.2,4.5-10.8,4.5c-4.6,0-8.1-1.5-10.7-4.5c-2.6-3-3.9-7.2-3.9-12.4
		c0-5.2,1.3-9.3,3.9-12.3c2.6-3,6.2-4.5,10.7-4.5c4.6,0,8.1,1.5,10.7,4.5C509.2,789.3,510.5,793.4,510.5,798.6z M483.7,798.6
		c0,4.7,1,8.3,3.1,10.9c2.1,2.6,5.1,3.8,9,3.8c3.9,0,7-1.3,9-3.8c2.1-2.5,3.1-6.2,3.1-10.9c0-4.7-1-8.3-3.1-10.9
		c-2.1-2.5-5.1-3.8-9-3.8c-3.9,0-6.9,1.3-9,3.8S483.7,793.9,483.7,798.6z"/>
	<path d="M532.2,800.8V815H530v-32.8h7.8c4.1,0,7.1,0.8,9,2.3s2.9,3.8,2.9,6.8c0,2.2-0.6,4-1.7,5.6c-1.2,1.5-2.9,2.6-5.3,3.2
		l8.9,14.9h-2.7l-8.4-14.3H532.2z M532.2,798.8h6.3c2.8,0,4.9-0.6,6.4-1.8c1.5-1.2,2.3-3.1,2.3-5.5c0-2.5-0.7-4.3-2.2-5.4
		c-1.5-1.1-3.9-1.7-7.3-1.7h-5.4V798.8z"/>
	<path d="M584.9,803.5h-13.3L567,815h-2.5l13.2-32.9h1.5L592,815h-2.6L584.9,803.5z M572.4,801.4h11.7l-4.5-11.8
		c-0.4-0.9-0.8-2.2-1.3-3.9c-0.4,1.4-0.8,2.7-1.3,3.9L572.4,801.4z"/>
</g>
</svg>
